<svg xmlns="http://www.w3.org/2000/svg" viewBox="0 0 820 520" role="img" aria-label="Три чемодана FLY-BAGS">
  <defs>
    <filter id="s" x="-20%" y="-20%" width="140%" height="140%"><feDropShadow dx="0" dy="26" stdDeviation="18" flood-color="#002856" flood-opacity=".20"/></filter>
  </defs>
  <g filter="url(#s)">
    <g transform="translate(100 168) scale(.82)">
      <path d="M112 68V45c0-16 12-28 28-28h20c16 0 28 12 28 28v23" fill="none" stroke="#111827" stroke-width="13" stroke-linecap="round"/>
      <rect x="58" y="62" width="184" height="250" rx="28" fill="#eadfc9"/>
      <path d="M82 120h136M82 160h136M82 200h136M82 240h136" stroke="rgba(0,0,0,.17)" stroke-width="4" stroke-linecap="round"/>
      <rect x="227" y="118" width="15" height="86" rx="7" fill="#111827"/><circle cx="100" cy="320" r="16" fill="#111827"/><circle cx="200" cy="320" r="16" fill="#111827"/>
    </g>
    <g transform="translate(270 84) scale(1.08)">
      <path d="M112 68V45c0-16 12-28 28-28h20c16 0 28 12 28 28v23" fill="none" stroke="#111827" stroke-width="13" stroke-linecap="round"/>
      <rect x="58" y="62" width="184" height="250" rx="28" fill="#003b7a"/>
      <path d="M82 120h136M82 160h136M82 200h136M82 240h136" stroke="rgba(255,255,255,.21)" stroke-width="4" stroke-linecap="round"/>
      <rect x="227" y="118" width="15" height="86" rx="7" fill="#111827"/><circle cx="100" cy="320" r="16" fill="#111827"/><circle cx="200" cy="320" r="16" fill="#111827"/>
    </g>
    <g transform="translate(508 48) scale(1.2)">
      <path d="M112 68V45c0-16 12-28 28-28h20c16 0 28 12 28 28v23" fill="none" stroke="#111827" stroke-width="13" stroke-linecap="round"/>
      <rect x="58" y="62" width="184" height="250" rx="28" fill="#ffd21e"/>
      <path d="M82 120h136M82 160h136M82 200h136M82 240h136" stroke="rgba(0,0,0,.17)" stroke-width="4" stroke-linecap="round"/>
      <rect x="227" y="118" width="15" height="86" rx="7" fill="#111827"/><circle cx="100" cy="320" r="16" fill="#111827"/><circle cx="200" cy="320" r="16" fill="#111827"/>
    </g>
  </g>
</svg>