<svg xmlns="http://www.w3.org/2000/svg" viewBox="0 0 300 360" role="img" aria-label="Чемодан">
  <defs>
    <linearGradient id="g" x1="0" x2="1" y1="0" y2="1"><stop offset="0" stop-color="#1261a6"/><stop offset="1" stop-color="#003b7a"/></linearGradient>
    <filter id="shadow" x="-20%" y="-20%" width="140%" height="140%"><feDropShadow dx="0" dy="18" stdDeviation="14" flood-color="#002856" flood-opacity=".20"/></filter>
  </defs>
  <g filter="url(#shadow)">
    <path d="M112 68V45c0-16 12-28 28-28h20c16 0 28 12 28 28v23" fill="none" stroke="#111827" stroke-width="13" stroke-linecap="round"/>
    <rect x="58" y="62" width="184" height="250" rx="28" fill="url(#g)"/>
    <rect x="83" y="86" width="134" height="202" rx="18" fill="none" stroke="rgba(255,255,255,.38)" stroke-width="3"/>
    <path d="M82 120h136M82 160h136M82 200h136M82 240h136" stroke="rgba(0,0,0,.20)" stroke-width="4" stroke-linecap="round"/>
    <rect x="227" y="118" width="15" height="86" rx="7" fill="#111827" opacity=".9"/>
    <circle cx="100" cy="320" r="16" fill="#111827"/><circle cx="200" cy="320" r="16" fill="#111827"/>
    <circle cx="100" cy="320" r="6" fill="#64748b"/><circle cx="200" cy="320" r="6" fill="#64748b"/>
  </g>
</svg>